<svg xmlns="http://www.w3.org/2000/svg" width="64" height="64" viewBox="0 0 64 64" fill="none">
	<rect width="64" height="64" rx="14" fill="#021006"/>
	<circle cx="42" cy="22" r="8" fill="#b6ff66"/>
	<path d="M22 39c0-6.075 4.925-11 11-11 4.86 0 8.99 3.153 10.454 7.53C48.405 35.11 52 39.005 52 44c0 4.97-4.03 9-9 9H26c-4.418 0-8-3.582-8-8 0-3.853 2.723-7.07 6.318-7.79C22.112 39.13 22 39.066 22 39Z" fill="#0b2414" stroke="#63ff8d" stroke-width="2.5" stroke-linejoin="round"/>
	<path d="M18 52h28" stroke="#63ff8d" stroke-width="2.5" stroke-linecap="round"/>
	<path d="M26 50v4M34 50v4M42 50v4" stroke="#b6ff66" stroke-width="2.5" stroke-linecap="round"/>
	<path d="M15 25l-2 4M18 19l-3 2" stroke="#b6ff66" stroke-width="2.5" stroke-linecap="round"/>
	<path d="M48 14l1 4M54 20l-4 1" stroke="#b6ff66" stroke-width="2.5" stroke-linecap="round"/>
</svg>